# xmcd
#
# Track frame offsets: 
#        150
#        15214
#        32795
#        47259
#        61034
#        74468
#        93250
#        110696
#        123722
#        139910
#        157196
#        169740
#        185589
#
# Disc length: 2668 seconds
#
# Revision: 2
# Processed by: cddbd v1.5.2PL0 Copyright (c) Steve Scherf et al.
# Submitted via: ExactAudioCopy v1.0b4
#
DISCID=ae0a6a0d
DTITLE=Sean Costello - Moanin' For Molasses
DYEAR=2001
DGENRE=Modern Blues, Electric Blues
TTITLE0=Moanin' For Molasses 
TTITLE1=You're Killing My Love
TTITLE2=Don't Be Reckless With My Heart
TTITLE3=You're A Part Of Me
TTITLE4=One Kiss
TTITLE5=No Lie
TTITLE6=The Plumber
TTITLE7=I Want You So Bad
TTITLE8=It Takes Time
TTITLE9=Miles Away
TTITLE10=Low-life Blues
TTITLE11=You Can't Win With A Losing Hand
TTITLE12=Good Advice
EXTD=YEAR: 2001 ID3G: 0
EXTT0=
EXTT1=
EXTT2=
EXTT3=
EXTT4=
EXTT5=
EXTT6=
EXTT7=
EXTT8=
EXTT9=
EXTT10=
EXTT11=
EXTT12=
PLAYORDER=
